<svg viewBox="0 0 200 200" xmlns="http://www.w3.org/2000/svg"><path d="M122.343 159.037c-8.507-.841-7.571-4.951-1.472-8.908l-20.608-5.085a1.3 1.3 0 0 1-.765-1.989l14.663-20.225 1.911-12.885c-22.9-1.95-56.395.229-66.126.822a6.362 6.362 0 0 0-4.989 2.733c-1.377 2.084-.994 8.718 8.239 8.2 12.235-.975 35.214-2.543 38.062-.746 3.881 2.447 7.169 12.139 5.162 14.854-2.026 2.715-55.917 3.823-57.007 2.2-.554-.841 1.109-4.951 2.868-8.755-11.6 3.46-38.368 10.61-35.673 16.211 3.326 6.978 56.51 7.093 60.161 11.91s-3.116 7.284-8.468 9.54c-5.334 2.255-1.989 8.66 9.5 8.755s61.977-2.542 67.043-4.32c5.087-1.797 13.656-9.749-12.501-12.312ZM96.5 161.924c-1.587 7.475-16.021 9.31-21.259 5.907-7.627-4.932-4.855-20.7-4.855-20.7-.058-2.313 1.242-3.919 14.185-3.919 10.82 0 12.483 1.625 13.076 3.078a9.884 9.884 0 0 1 .114 4.168c2.581-.1 5.927.076 5.946 5.467.035 6.955-7.207 5.999-7.207 5.999Z" fill="#257cc7"></path><path d="M189.864 113.424c-.038-3.135-11.451-3.479-25.788-3.269l-4.914 19.652a4.74 4.74 0 0 1-.611 1.3l-7.074 11.012c1.071 0 2.161 0 3.231.057 21.889 1.032 26.688-1.2 26.688-7.456 0-7.111-13.593-7.245-13.593-13.114.039-6.194 22.157-.229 22.061-8.182Z" fill="#257cc7"></path><path d="M91.851 134.338c-8.411.554-16.785 1.529-25.215 1.95-8.182.4-16.422.019-24.6.459 1.568-3.938 3.307-7.915 4.493-11.968 14.184-.516 28.541-.669 42.688-1.8a.64.64 0 0 0 0-1.28c-14.28-.02-28.676 1.605-42.937 2.217a.447.447 0 0 0-.421.516c-1.567 4.244-3.288 8.45-4.989 12.637-.172.439.306.688.669.535 8.469.726 17.244.057 25.712-.268 8.221-.325 16.575-.65 24.757-1.758a.634.634 0 0 0-.157-1.24Z" fill="#cccad9"></path><path d="M91.736 123.269c-.382-.535-1.261-.038-.879.516 1.74 2.619 3.441 6.385 3.594 9.521a.641.641 0 0 0 1.281 0c.057-3.327-2.103-7.399-3.996-10.037Z" fill="#cccad9"></path><path d="M87.11 130.515c.918-.058.918-1.492 0-1.434-4.416.306-8.813.631-13.229.975-.038-.344-.076-.669-.1-.956-.038-.5-.038-1.013-.038-1.51q5.85-.288 11.719-.44a.669.669 0 0 0 0-1.338c-3.881.019-7.8.057-11.738.172-.019-.306-.038-.612-.076-.937-.077-.726-1.186-.765-1.166 0 0 .325 0 .631-.02.956-4.11.115-8.22.306-12.311.612a3.363 3.363 0 0 0-1.2-1.74c-.383-.268-.861.249-.631.631a5.749 5.749 0 0 1 .554 1.2c-3.747.306-7.475.688-11.145 1.205-.459.057-.344.8.115.8 3.8-.1 7.627-.249 11.432-.44.172.956.267 1.95.516 2.867q-5.85.487-11.7 1.052c-.592.057-.612.975 0 .937 4.034-.249 8.068-.536 12.1-.822a4.461 4.461 0 0 0 .421.783.789.789 0 0 0 1.223.153c.019-.019.039-.057.077-.076a.718.718 0 0 0 .172-.669c0-.019-.019-.058-.019-.077a1.123 1.123 0 0 0-.153-.248c3.575-.249 7.13-.478 10.7-.727a5.713 5.713 0 0 0 1.7 3.174c.611.42 1.338-.268 1.185-.918 0-.019-.019-.038-.019-.076a.708.708 0 0 0-.287-.383 4.14 4.14 0 0 1-1.051-1.911c4.328-.223 8.649-.53 12.969-.815Zm-26.018-.421a31.949 31.949 0 0 1-.5-1.854l11.8-.574a15.624 15.624 0 0 0-.019 2.5q-5.478.431-10.954.88c-.119-.398-.289-.818-.327-.952Z" fill="#cccad9"></path><path d="M190.209 88.056a.392.392 0 0 0-.784 0c.038 8.354-2.562 17.148-12.637 16.5-3.307-.211-7.7-1.262-10.132-3.652-3.383-3.326-2.867-10.3-2.217-14.586a180.922 180.922 0 0 0 22.978 1.032.316.316 0 0 0 0-.631c-7.838-.478-15.618-.783-23.437-1.586a.468.468 0 0 0-.535.478.709.709 0 0 0-.306.535c-.421 4.435-1.052 11.3 1.93 15.083 2.467 3.135 7.475 4.3 11.222 4.646 4.225.363 8.488-.765 11.145-4.244 2.964-3.902 3.117-8.931 2.773-13.575Z" fill="#cccad9"></path><path d="M58.511 36.1a.43.43 0 0 0-.115-.229c-.019-.019-.019-.038-.038-.038a.418.418 0 0 0-.21-.1c-.019 0-.039-.019-.058-.019-5.027-.516-10.361.5-15.274 1.606a.452.452 0 0 0-.325.65c-.688 6.939-.153 14.146.019 21.086.172 6.461.363 12.923.956 19.346a.519.519 0 0 0 .191.364.391.391 0 0 0 .325.229c4.99.4 10.342-.344 15.313-.879.019 0 .038-.019.057-.019a.424.424 0 0 0 .421-.459c-.115-13.766.382-27.855-1.262-41.538ZM44.46 78.172c-.535-2.179-.325-4.722-.4-6.94-.133-4.186-.306-8.373-.439-12.559-.211-6.749-.784-13.688-.23-20.437 4.78-.879 9.521-1.185 14.319-1.7 1.338 13.5.8 27.089 1.109 40.624-4.743-.231-9.599.878-14.359 1.012Z" fill="#cccad9"></path><path d="M160.061 44.985c-.191-3.785-.1-7.9-.918-11.643a.732.732 0 0 0-.42-1.089c-9.712-3.25-20.226-4.8-30.339-6.041a309.745 309.745 0 0 0-54.426-1.262 349.534 349.534 0 0 0-41.37 4.741.42.42 0 0 0-.42.325c-1.186 4.321-.88 8.87-.861 13.306.019 4.683.115 9.367.325 14.051.268 6.232.669 12.464 1.339 18.677.5 4.588 1.013 9.348 2.619 13.707a.485.485 0 0 0 .592.287c45.824-2.925 74.213-3.155 118.469 1.51a.438.438 0 0 0 .612-.21c1.835-4.7 2.179-10.343 2.867-15.294.822-5.945 1.51-11.891 1.912-17.874a117.043 117.043 0 0 0 .019-13.191Zm-1.319 13.592c-.44 6.175-1.166 12.33-2.046 18.448-.458 3.193-1.166 6.4-1.682 9.616-41.236-4.3-78.055-2.447-119.482-.555-2.141-9.29-2.294-19.327-2.638-28.713-.21-5.6-.325-11.222-.268-16.823.039-3.25-.248-6.806.364-10.037 20.78-2.542 41.426-4.951 62.4-4.856a267.478 267.478 0 0 1 31.275 1.855c10.706 1.281 20.972 3.766 31.448 6.136.726 3.747.573 7.915.765 11.681a109.469 109.469 0 0 1-.136 13.248Z" fill="#cccad9"></path><path d="M39.967 116.827a.481.481 0 0 0-.076-.134c-1.147-1.338-.9-4.837-1.071-6.481-.286-2.6-.42-5.219-.764-7.819-.727-5.352-2.161-8.87-7.781-10.571-5.831-1.759-12.732-.765-16.727 4.148a13.463 13.463 0 0 0-2.887 9.769c.057.822.592 2.007.287 2.753-.249.65-1.644 1.395-2.218 1.931a20.559 20.559 0 0 0-3.67 4.664.407.407 0 0 0 .325.612.417.417 0 0 0 .229.554 25.183 25.183 0 0 1 9.654 7.915.52.52 0 0 0 .746 0c1.242-1.511 4.51-6.857 7.092-5.678.691.315 2.162 3.047 3.384 4.97a.574.574 0 0 0 .764.192c2.352-1.014 4.894-1.339 7.265-2.333a33.244 33.244 0 0 0 6-3.556c.538-.363.022-1.28-.552-.936Zm-10.036 4.855c-1.969.536-2.485.765-3.747-.936-.878-1.186-1.7-2.962-2.619-3.308a3.523 3.523 0 0 0-3.747.612c-1.147.86-3.1 4.837-4.512 4.7-.5-.038-1.625-1.7-2.083-2.141a29.38 29.38 0 0 0-2.964-2.6 19.7 19.7 0 0 0-4.416-2.485h-.019a21.51 21.51 0 0 1 3.938-4.76c.134-.115.325-.23.516-.364v.019a31.914 31.914 0 0 1 2.161 3.4 9.94 9.94 0 0 0 1.281 2.7 1.869 1.869 0 0 0 2.332.592c1.3-.458 2.581-1.777 3.728-2.523.879-.574 1.128-.918 2.064-.707a5.574 5.574 0 0 1 1.759 1.242 6.708 6.708 0 0 0 4.913 1.855c1.3-.077 4.493-.344 5.429-1.434 1.128-1.319.306-4.8.268-6.347-.038-.994 0-1.625-.4-2.1 1.223-1.07 2.026-2.982 1.223-4.359a.71.71 0 0 0-.65-.917 31.339 31.339 0 0 0-9.979 1.013c-.538.179-.971.854-.555 1.319 3.313 3.75 6.013 2.895 7.8 3.938 1.434.841 1.205 4.646.44 5.888a3.26 3.26 0 0 1-2.638 1.625c-3.155.555-3.594-.019-5.468-1.587-2.561-2.122-2.485-1.988-5.333-.114-.708.459-1.759 1.491-2.543 1.606-1.243.191-1.3-.612-1.816-1.644a36.785 36.785 0 0 0-2.447-4.378.623.623 0 0 0-.115-.115 1.671 1.671 0 0 0 .478-.669 3.075 3.075 0 0 0 .019-1.453c2.406 1.232 6.937-1.767 9.482-3.192.478-.268.44-1.186-.172-1.281-1.453-.23-2.772-.918-4.205-1.262a25.58 25.58 0 0 0-5.047-.688 10.979 10.979 0 0 1 1.185-2.7c4.033-6.516 14.815-8.351 20.528-2.788 3.039 2.963 2.733 9.272 3.154 13.21.268 2.428-.038 6.978 1.587 9.081a31.938 31.938 0 0 1-8.81 4.052Z" fill="#cccad9"></path><path d="M23.565 129c0-.019.019-.038 0-.076-.249-3.059-.191-6.29-.841-9.291-.1-.478-.727-.306-.784.1a73.708 73.708 0 0 0 .1 9.195c0 .038.019.076.019.115-1.319.114-2.639.344-3.786.477-.726.077-.764 1.224 0 1.167 2.964-.23 5.6-.669 8.316.726.746.382 1.664-.631.937-1.223a6.153 6.153 0 0 0-3.961-1.19Z" fill="#cccad9"></path><path d="M114.524 107c-23.189-1.874-46.78-.9-69.911 1.357 1.109-1.51 2.217-3 3.307-4.493 2.78-3.738 2.7-4.059 3.1-4.129.457-.069 9.325-.852 9.425-.86A269.673 269.673 0 0 1 89.863 98a.526.526 0 0 0 .516-.516c-.095-2.542-.134-5.1-.057-7.647.019-.669-.994-.669-1.033 0q-.086 2.065-.057 4.13c.019.707.038 1.414.077 2.122.019.229.133.745-.039.86-.134.1-.8-.077-.975-.1-2.753-.229-5.5 0-8.258-.019-5.449-.038-10.9.211-16.326.669-2.39.192-4.76.44-7.15.65-5.385.435-5.653.187-6.462.746-1.3.879-2.5 3.441-3.422 4.684-1.261 1.72-2.5 3.422-3.747 5.142a.572.572 0 0 0 .5.86c11.814-1.147 23.667-1.911 35.538-2.141 11.891-.229 23.705.344 35.6.765.74.057.721-1.147-.044-1.205Z" fill="#cccad9"></path><path d="M117.372 98.092a120.183 120.183 0 0 1-14.605-.44c-.344-.038-.746-.038-1.109-.076a9.443 9.443 0 0 0 .019-1.032c.077-2.486.058-4.971.134-7.437.019-.459-.745-.593-.822-.115-.459 2.983-.344 6.1-.535 9.1a.61.61 0 0 0 .592.593c5.334.63 11.165 1.376 16.5.63.687-.076.515-1.242-.174-1.223Z" fill="#cccad9"></path><path d="m99.46 59.208-.23-13.287c-.038-2.1.364-4.76-.114-6.8-.383-1.606-1.186-1.683-2.7-1.759-2.982-.115-6.022.038-9 .057-3.766.019-7.513.019-11.279-.019-2.428-.019-4.856-.287-5.391 2.581a.427.427 0 0 0-.077.249c.019 9.5.134 18.983.5 28.484.058 1.319-.344 3.862.383 5.047.936 1.529 3.67.937 5.1.918 3.46-.02 6.92-.134 10.381-.249 3.5-.134 7.341.153 10.782-.4 2.217-.364 1.892-1.817 1.854-3.652-.075-3.734-.152-7.442-.209-11.17Zm-2.466 13.955c-2.428.536-5.449.211-7.934.306-3.307.134-6.614.249-9.922.287-2.141.038-6.232.937-7-1.606-.516-1.72-.172-4.244-.229-6.041-.306-8.641-.4-17.282-.421-25.923v-.038c.708-2.963 8.125-1.969 10.209-1.95h8.354c2.007 0 4.359-.363 6.328-.038 1.854.325 1.663.669 1.892 1.873.44 2.352.1 5.124.134 7.494.058 3.69.134 7.36.191 11.05l.172 9.864c.042 2.294.883 4.149-1.774 4.722Z" fill="#cccad9"></path><path d="M141.556 40.416c-.364-1.568-1.339-1.644-2.753-1.874-3.1-.462-14.7-1.514-20.8-1.759-2.428-.095-4.855-.3-5.41 2.543a.427.427 0 0 0-.076.249c.019 9.463.134 18.906.478 28.369.057 1.434-.383 4.111.382 5.43.765 1.3 3.078 1.013 4.32 1.147 3.786.363 7.59.573 11.375.688 1.874.057 3.747.076 5.64.095 1.606 0 3.785.383 5.314-.076 1.855-.535 1.51-2.084 1.51-3.69V47.107c.02-2.027.478-4.684.02-6.691Zm-2.715 33.99c-2.6.382-5.525.038-8.144-.019-3.25-.077-6.5-.21-9.731-.459-2.351-.172-6.308.363-6.939-2.371-.44-1.911-.172-4.282-.229-6.251-.287-8.583-.383-17.148-.4-25.731v-.039c.746-3.192 8.163-1.758 10.266-1.605 2.848.21 5.7.458 8.526.745a49.265 49.265 0 0 1 6.309.669c1.548.363 1.969.65 2.217 1.931.44 2.218 0 4.951 0 7.188v21.144c.018 2.198.84 4.377-1.875 4.798Z" fill="#cccad9"></path><path d="M163.789 101.361c-14.7-1.759-29.421-3.116-44.142-4.779a.611.611 0 0 0-.611.478c-.9 5.257-1.472 10.571-2.141 15.867-.421 3.422-1.492 6.92-1.453 10.38a.381.381 0 0 0-.077.153c-1.185 1.491-15.924 19.882-14.93 20.7 1.032.841 40.451 9.635 41.579 9.635 1.052 0 13.382-20.321 15.351-23.552a.521.521 0 0 0 .345-.325c1.395-4.359 2.37-8.89 3.46-13.325 1.109-4.435 2.389-8.889 3.154-13.4.019-.188.229-1.756-.535-1.832ZM128.1 148.045a.961.961 0 0 1-.937.306l-11.951-3.151a.937.937 0 0 1-.535-1.414c1.319-1.931 3.995-5.754 4.645-5.678.861.1 13.172 2.963 13.344 3.651.153.57-3.384 4.871-4.566 6.286Zm16.173-6.615-30.511-6.538a1.185 1.185 0 0 1-.841-1.644c.23-.5.555-1.147.956-1.835l34.277 7.035a83.826 83.826 0 0 1-1.835 2.275 2.041 2.041 0 0 1-2.049.707Zm4.722-4.11-34.411-7.073a8.738 8.738 0 0 1 2.39-2.829c1.4-.517 33.4 5.066 33.761 6.461.15.574-.691 1.988-1.743 3.441Zm10.878-21.1c-1.071 4.454-2.313 8.909-3.1 13.42l-29.632-4.511c-3.632-.746-7.264-1.434-10.954-1.931-.038-3.671.994-7.227 1.7-10.782.707-3.5 1.032-7.074 1.605-10.61.211-1.338.1-3.135 1.4-3.824.784-.42 2.1.019 2.906.172 5.907 1.109 12.063 1.339 18.027 2.027 6.232.707 12.464 1.491 18.678 2.275.936.114 1.873.248 2.791.363-.002.014-2.354 8.942-3.424 13.396Z" fill="#cccad9"></path><path d="M155.339 111.875c-5.945 1.8-11.795 3.805-17.8 5.411-1.243.325-3.059 1.586-3.269-.325-.172-1.568 2.37-3.958 3.25-4.971a16.287 16.287 0 0 0 3.441-5.334c.115-.344-.287-.573-.574-.439-4.11 2.007-8.086 4.282-12.024 6.576-.459.268-.038.975.4.707 3.613-2.1 7.322-4.072 10.993-6.06-2.027 4.053-6.653 6.4-6.672 11.394a.509.509 0 0 0 .631.478 160.318 160.318 0 0 0 21.793-6.691c.5-.172.328-.899-.169-.746Z" fill="#cccad9"></path><path d="M73.728 42.672a28.965 28.965 0 0 0 5.143.019.813.813 0 0 0 0-1.625c-1.7-.077-3.441.172-5.143.267a.67.67 0 0 0 0 1.339Z" fill="#257cc7"></path><path d="M78.718 45.482q1.434-.087 2.867-.115a5.372 5.372 0 0 0 2.409-.306c.516-.267.306-.937-.153-1.128a5.292 5.292 0 0 0-2.447-.019c-.9.077-1.778.191-2.676.287-.8.1-.841 1.338 0 1.281Z" fill="#257cc7"></path><path d="M86.288 45.138a9.6 9.6 0 0 0 1.95.114c1.071 0 1.051-1.72 0-1.663a11.135 11.135 0 0 0-1.95.21.7.7 0 0 0 0 1.339Z" fill="#257cc7"></path><path d="M87.263 46.648a11.276 11.276 0 0 0-3.212.363.6.6 0 0 0 0 1.147 13.768 13.768 0 0 0 3.046.189c1.183-.009 1.403-1.737.166-1.699Z" fill="#257cc7"></path><path d="M91.2 48.043a16.406 16.406 0 0 0 3.059.058.794.794 0 0 0 0-1.587 16.953 16.953 0 0 0-3.25.249c-.765.114-.478 1.223.191 1.28Z" fill="#257cc7"></path><path d="M82.541 51.848a41.74 41.74 0 0 0-8.469.516c-.478.076-.516.918 0 .994a58.459 58.459 0 0 0 8.231.133c1.11-.007 1.576-1.661.238-1.643Z" fill="#257cc7"></path><path d="M87.167 52.918c.746.019 1.511.115 2.275.077.956-.058.975-1.53 0-1.51-.764.019-1.51.172-2.275.267a.583.583 0 0 0 0 1.166Z" fill="#257cc7"></path><path d="M83.115 57.965c.63.077 1.28.134 1.911.153a2.082 2.082 0 0 0 1.587-.306.605.605 0 0 0 0-.86 2.2 2.2 0 0 0-1.7-.344 16.713 16.713 0 0 0-1.95.191c-.727.115-.44 1.09.153 1.166Z" fill="#257cc7"></path><path d="M89.92 58.042c1.071.038 2.122.076 3.193.057a.755.755 0 0 0 0-1.51c-1.071.019-2.122.114-3.193.172a.641.641 0 0 0 0 1.281Z" fill="#257cc7"></path><path d="M95.617 57.7a7.529 7.529 0 0 0 1.606.076c.937-.1.975-1.548 0-1.491-.535.038-1.051.115-1.606.134a.641.641 0 0 0 0 1.281Z" fill="#257cc7"></path><path d="M75.2 63.872c2.734.02 5.506.192 8.22-.019a.727.727 0 0 0 0-1.453c-2.733-.095-5.486.192-8.22.325a.574.574 0 0 0 0 1.147Z" fill="#257cc7"></path><path d="M86.862 63.605c1.032 0 2.045.114 3.058.134a.746.746 0 0 0 0-1.492 16.453 16.453 0 0 0-3.211.268c-.65.057-.478 1.09.153 1.09Z" fill="#257cc7"></path><path d="M93.285 63.471a5.838 5.838 0 0 0 1.912-.1.734.734 0 0 0-.192-1.433c-.573-.039-1.147.038-1.72 0-.975-.039-.956 1.472 0 1.529Z" fill="#257cc7"></path><path d="M80.209 67.237a3.745 3.745 0 0 0 2.16.21 3.124 3.124 0 0 0 2.046-.439.61.61 0 0 0-.115-.937 3.242 3.242 0 0 0-2.046-.172 3.827 3.827 0 0 0-2.026.4.539.539 0 0 0-.019.937Z" fill="#257cc7"></path><path d="M90.9 65.555c-.956-.019-1.911.038-2.867.095a.641.641 0 0 0 0 1.281c.88.018 1.786.088 2.642.12 1.007.038 1.471-1.478.225-1.496Z" fill="#257cc7"></path><path d="M116.665 43.608c1.663.1 3.4.612 5.085.383.631-.077.593-1.128 0-1.243a20.56 20.56 0 0 0-5.085-.191.526.526 0 0 0 0 1.051Z" fill="#257cc7"></path><path d="M125.077 43.991a30.2 30.2 0 0 0 3.708.325c.975.095.975-1.453 0-1.511a10.991 10.991 0 0 0-3.708.115.558.558 0 0 0 0 1.071Z" fill="#257cc7"></path><path d="M131.576 44.3a13.634 13.634 0 0 0 2.486.267.714.714 0 0 0 .191-1.4 4.727 4.727 0 0 0-2.677-.02c-.516.153-.592 1.033 0 1.148Z" fill="#257cc7"></path><path d="M133.775 47.91a46.868 46.868 0 0 0-6.748.267.555.555 0 0 0-.02 1.109 48.787 48.787 0 0 0 6.679.024c.883-.054 1.102-1.364.089-1.4Z" fill="#257cc7"></path><path d="M130.315 53.129a11.33 11.33 0 0 0 3.211.019.65.65 0 0 0 0-1.243 11.333 11.333 0 0 0-3.211.019.6.6 0 0 0 0 1.2Z" fill="#257cc7"></path><path d="M136.031 53.377a.746.746 0 0 0 0-1.491.746.746 0 0 0 0 1.491Z" fill="#257cc7"></path><path d="M136.451 55.4q-1.463 0-2.925.057a.574.574 0 0 0 0 1.147c.9 0 1.8.089 2.706.1 1.151.014 1.124-1.304.219-1.304Z" fill="#257cc7"></path><path d="M118.711 60.68a32.427 32.427 0 0 0 6.939.134.63.63 0 0 0 0-1.2 32.4 32.4 0 0 0-6.939.134.469.469 0 0 0 0 .937Z" fill="#257cc7"></path><path d="M129.072 60.7c.5.019 1.013.057 1.51.076s.8.077 1.186-.286a.543.543 0 0 0 0-.765c-.631-.593-1.912-.249-2.7-.191a.584.584 0 0 0 0 1.166Z" fill="#257cc7"></path><path d="M124.427 64.159c1.739.134 3.517-.019 5.257.077.917.057.937-1.453 0-1.434a30.1 30.1 0 0 0-5.41.267c-.65.115-.44 1.052.153 1.09Z" fill="#257cc7"></path><path d="M132.781 65.822a21.958 21.958 0 0 0-3.154.287c-.65.077-.44 1.052.152 1.09.966.055 1.949.041 2.917.042.931.002 1.079-1.419.085-1.419Z" fill="#257cc7"></path><path d="M102.92 155.2c-.535-2.81-4.282-4.741-6.443-3.174-.038-1.453-.076-2.886.02-4.282a.634.634 0 0 0-.172-.516 1.018 1.018 0 0 0 .057-.23c-.057-2.848-12.675-3.154-12.789-3.154-.115-.019-11.853-.057-12.006 2.677-.115 2.179 7.169 3.594 10.916 3.842.669.038 1.319.057 1.988.057 4.263 0 8.45-.822 10.476-1.835-.095 3.04.211 6.1-.057 9.119-.459 5.238-3.9 8.985-9.272 9.387-4.492.344-10.9-1.052-12.139-5.984-1.013-4.034-.421-8.469-.9-12.579a.363.363 0 0 0-.726 0c-.344 4.492-1.109 11.011 1.109 15.16 2.179 4.091 8.449 5.1 12.655 4.836a11.244 11.244 0 0 0 9.807-6.48 11.411 11.411 0 0 0 .459-1.358c1.625.8 2.925.631 4.665-.554a5.074 5.074 0 0 0 2.352-4.932Zm-20.36-6.137c-4.913-.325-9.1-1.759-9.673-2.485.726-.688 5.429-1.472 10.228-1.472h.458c5.583.057 10.782 1.166 11.49 1.912-.708.836-6.347 2.442-12.503 2.04Zm18.984 7.073a4.073 4.073 0 0 1-1.989 2.811 2.853 2.853 0 0 1-3.307.134 29.927 29.927 0 0 0 .287-5.564 3.013 3.013 0 0 1 5.009 2.614Z" fill="#cccad9"></path><path d="M75.315 161.905c1.032 2.581 4.053 3.556 6.595 3.861 5.525.708 11.948-2.083 11.451-8.239a.837.837 0 0 0 .268-.822.751.751 0 0 0-.287-1.032 18.568 18.568 0 0 0-8.947-1.912c-3.058.038-6.423.019-9.138 1.587a.464.464 0 0 0-.229.458.45.45 0 0 0-.21.459.759.759 0 0 0-.115.44 11.332 11.332 0 0 0 .612 5.2Zm10.514-1.874a21.662 21.662 0 0 1-8.851-.975.418.418 0 0 1 .229-.8 22.01 22.01 0 0 0 8.641.8c.612-.076.612.918-.019.975Zm4.99-3.727c-2.237.152-4.493.286-6.729.325s-5.105.439-7.341-.287a3.875 3.875 0 0 1-.478-.268 22.712 22.712 0 0 1 14.548.226Z" fill="#cccad9"></path><path d="M166.236 66.74c0 .019-.019.019-.019.038a6.507 6.507 0 0 0-1.664-1.109.51.51 0 0 0-.516.88A9.533 9.533 0 0 1 165.72 68c0 .019-.02.038-.02.057a12.4 12.4 0 0 0-.363 3.288.368.368 0 0 1 .23.134 9.938 9.938 0 0 1 1.166 1.376.392.392 0 0 1-.44.574c-.459-.134-.65-.688-.975-.994s-1.109-.841-1.587-.593a.662.662 0 0 0-.019 1.09 14.662 14.662 0 0 1 1.53 1.09c.095.095.191.172.286.286a58.269 58.269 0 0 0 1.683 8.259c.4 1.434 2.829 1.51 3.383.172a73 73 0 0 0 .975-2.543c-1.051-3.785-2.485-9.386-3.632-15.274a4.054 4.054 0 0 0-1.701 1.818Z" fill="#257cc7"></path><path d="M182.141 45.482c-.573.21-1.128.5-1.7.764a.441.441 0 0 1-.44-.764 5.618 5.618 0 0 1 2.122-.88v-.057c.86-.229 1.7-.573 2.428-.841a.436.436 0 0 0-.23-.841c-.764.172-1.529.306-2.274.478a19.244 19.244 0 0 0-.8-4.8 4.581 4.581 0 0 1 .363-.286c.669-.5 1.3-1.033 1.988-1.53.4-.306.057-.994-.421-.707a9.9 9.9 0 0 0-2.485 1.606c-.478.535-.8 1.529-1.606 1.682a.325.325 0 0 1-.286-.535c.478-.612 1.07-1.109 1.567-1.74.019-.019.019-.038.058-.038a8.388 8.388 0 0 0-4.455-3.441 9.532 9.532 0 0 0 .249-1.931.368.368 0 0 0-.631-.249 3.664 3.664 0 0 0-.841 2.122 10.24 10.24 0 0 0 .44 1.071c.133.363-.287.5-.555.382-.459-.172-.573-.9-.612-1.3a11.329 11.329 0 0 0-1.395.746 16.226 16.226 0 0 0-1.491 1.548c-.88-.688-1.491-1.644-2.447-2.275-.383-.248-.822.23-.612.612a15.956 15.956 0 0 0 2.026 2.39c.115.114.211.229.325.363a23.247 23.247 0 0 0-1.873 4.148 14.244 14.244 0 0 0-2.887-.9c-.535-.115-.936.669-.382.937.937.458 1.912.822 2.848 1.261.172.1-.229 1.339-.267 1.511a14.333 14.333 0 0 0-.287 2.733 40 40 0 0 0 .1 5.238 27.614 27.614 0 0 0-2.944-1.127.486.486 0 0 0-.383.879c.918.478 1.855.918 2.81 1.338.211.1.4.172.612.287 1.032 11.6 5.009 26.229 6.232 30.453A1.659 1.659 0 0 0 175.6 85a1.592 1.592 0 0 0 1.529-1.052c2.947-7.458 5.394-27.034 5.012-38.466Zm-8.947-4.435c.593 1.147 1.415 2.2 2.027 3.364.267.478-.383 1.033-.784.612a14.369 14.369 0 0 1-2.046-3.518c-.229-.535.517-.994.803-.458Zm-.65 10.743a19.488 19.488 0 0 0 2.275 3.384c.4.4-.248 1.032-.611.612a20.438 20.438 0 0 1-2.314-3.613.377.377 0 0 1 .65-.383Zm4.741 8.852c-.478.592-.917 1.185-1.376 1.778a7.78 7.78 0 0 1-1.415 1.548c-.363.268-.764-.249-.573-.593a7.786 7.786 0 0 1 1.338-1.625c.5-.535 1.032-1.07 1.529-1.625.306-.344.765.175.497.517Zm2.315-17.187a13.747 13.747 0 0 1-1.95 2.734.46.46 0 0 1-.65-.65 14.1 14.1 0 0 0 1.911-2.485c.248-.44.936-.038.689.401Z" fill="#257cc7"></path><path d="M194.4 55.9c-.554.172-1.109.363-1.644.554-.593-2.81-2.16-4.569-4.014-5.123a14.528 14.528 0 0 0 .133-1.759c.019-.516-.669-.535-.841-.115a16.835 16.835 0 0 0-.516 1.663 5.534 5.534 0 0 0-3.862 1.625 138.4 138.4 0 0 1-2.485 21.928c.325 4.071.727 7.589.937 9.252a1.188 1.188 0 0 0 2.256.344 184.92 184.92 0 0 0 4.894-11.833c.1-.019.191-.057.286-.077a10.279 10.279 0 0 0 2.906-1.013c.44-.267.287-1.051-.267-1.013a12.294 12.294 0 0 0-2.352.516 105.52 105.52 0 0 0 1.683-5.085 10.771 10.771 0 0 1-2.543.765c-.44.038-.554-.574-.21-.784 1.453-.86 3.345-1.109 4.932-1.663a.5.5 0 0 0-.134-.975 11.844 11.844 0 0 0-1.376.114 19.83 19.83 0 0 0 .745-5.735c.612-.248 1.224-.5 1.835-.764.492-.152.148-.993-.363-.822Zm-10.118 16.346a5.188 5.188 0 0 1-.459-2.581.4.4 0 0 1 .8 0c.058.822.287 1.606.306 2.409a.355.355 0 0 1-.647.172Zm1.912-11.815a4.015 4.015 0 0 1 .057-2.676c.134-.344.727-.172.689.191a10.006 10.006 0 0 0-.039 1.071 4.555 4.555 0 0 0 .058.726c.019.134.057.287.095.44a.448.448 0 1 1-.86.248Z" fill="#257cc7"></path></svg>